<svg width="20" height="20" viewBox="0 0 20 20" fill="none" xmlns="http://www.w3.org/2000/svg">
<circle cx="10" cy="10" r="10" fill="white"/>
<path d="M3.23295 15V4.81818H6.79261C7.50189 4.81818 8.08688 4.94081 8.54759 5.18608C9.00829 5.42803 9.35133 5.7545 9.5767 6.16548C9.80208 6.57315 9.91477 7.02557 9.91477 7.52273C9.91477 7.96023 9.83688 8.3215 9.68111 8.60653C9.52865 8.89157 9.32647 9.11695 9.07457 9.28267C8.82599 9.44839 8.55587 9.57102 8.2642 9.65057V9.75C8.57576 9.76989 8.88897 9.87926 9.20384 10.0781C9.5187 10.277 9.7822 10.562 9.99432 10.9332C10.2064 11.3045 10.3125 11.7585 10.3125 12.2955C10.3125 12.8059 10.1965 13.2649 9.96449 13.6726C9.73248 14.0803 9.36624 14.4034 8.86577 14.642C8.36529 14.8807 7.71402 15 6.91193 15H3.23295ZM4.46591 13.9062H6.91193C7.71733 13.9062 8.28906 13.7505 8.62713 13.4389C8.96851 13.1241 9.1392 12.7429 9.1392 12.2955C9.1392 11.9508 9.05137 11.6326 8.87571 11.3409C8.70005 11.0459 8.44981 10.8106 8.125 10.6349C7.80019 10.456 7.41572 10.3665 6.97159 10.3665H4.46591V13.9062ZM4.46591 9.29261H6.75284C7.12405 9.29261 7.45881 9.2197 7.7571 9.07386C8.05871 8.92803 8.29735 8.72254 8.47301 8.45739C8.65199 8.19223 8.74148 7.88068 8.74148 7.52273C8.74148 7.07528 8.5857 6.69579 8.27415 6.38423C7.9626 6.06937 7.46875 5.91193 6.79261 5.91193H4.46591V9.29261Z" fill="#1677FF"/>
<path d="M12.0849 15L12.761 4.81818H13.994L13.3874 13.9062H18.1204L18.0508 15H12.0849Z" fill="black"/>
</svg>
